<svg width="284" height="177" viewBox="0 0 284 177" fill="none" xmlns="http://www.w3.org/2000/svg">
<path d="M45.0368 99.9711L42.5238 135.059L36.613 136.957L14.1424 109.891L19.5352 108.16C20.043 107.997 20.5018 107.995 20.9115 108.155C21.3351 108.287 21.6531 108.51 21.8655 108.823L34.5625 124.71C35.1208 125.472 35.6454 126.233 36.1362 126.994C36.627 127.755 37.0907 128.536 37.5271 129.337C37.4157 128.432 37.3412 127.537 37.3038 126.653C37.2801 125.742 37.2702 124.804 37.2741 123.839L38.4705 103.491C38.475 103.086 38.6006 102.71 38.8473 102.362C39.094 102.014 39.451 101.765 39.9182 101.615L45.0368 99.9711ZM72.8679 104.31C72.5157 103.213 72.0271 102.25 71.4021 101.42C70.7909 100.563 70.0697 99.8873 69.2386 99.3923C68.401 98.8771 67.4632 98.5732 66.4252 98.4808C65.401 98.3615 64.2999 98.491 63.1218 98.8693C60.7453 99.6324 59.0951 100.913 58.1712 102.711C57.2473 104.509 56.9971 106.695 57.4207 109.27L72.8679 104.31ZM58.5293 113.351C59.1779 115.092 59.9446 116.537 60.8292 117.687C61.7072 118.817 62.6692 119.684 63.7149 120.29C64.781 120.888 65.9208 121.228 67.1343 121.309C68.3616 121.363 69.6455 121.175 70.9861 120.744C72.2658 120.334 73.3271 119.836 74.1701 119.251C75.0067 118.647 75.7148 118.061 76.2945 117.494C76.8677 116.906 77.3524 116.392 77.7486 115.951C78.1382 115.49 78.5362 115.194 78.9424 115.064C79.4705 114.894 79.942 114.967 80.3568 115.282L82.9882 117.092C82.5099 118.254 81.8843 119.306 81.1115 120.249C80.3387 121.192 79.4691 122.042 78.5027 122.801C77.5298 123.539 76.4905 124.175 75.3849 124.709C74.2859 125.264 73.1879 125.717 72.0911 126.07C69.938 126.761 67.8231 127.048 65.7465 126.93C63.6836 126.786 61.7467 126.232 59.9358 125.267C58.1452 124.296 56.5313 122.899 55.0942 121.075C53.6774 119.244 52.5353 116.978 51.6679 114.277C50.9765 112.124 50.666 110.005 50.7362 107.921C50.8268 105.831 51.28 103.893 52.0958 102.107C52.932 100.315 54.1267 98.7328 55.6801 97.3602C57.2473 95.9607 59.1785 94.8925 61.4738 94.1555C63.3831 93.5424 65.2513 93.2898 67.0785 93.3977C68.8991 93.4853 70.5908 93.9391 72.1537 94.7593C73.7166 95.5794 75.1035 96.7585 76.3144 98.2966C77.5391 99.8079 78.5069 101.671 79.2178 103.885C79.5439 104.9 79.6507 105.616 79.5381 106.033C79.4255 106.451 79.0747 106.754 78.4857 106.943L58.5293 113.351ZM89.0266 92.1982C89.3689 89.9149 90.0513 87.9929 91.0738 86.4322C92.0898 84.8513 93.5626 83.751 95.4922 83.1314C96.1625 82.9161 96.8183 82.7952 97.4595 82.7685C98.0942 82.7216 98.6941 82.7754 99.2591 82.9301L100.387 88.0127C100.417 88.384 100.363 88.6702 100.226 88.8711C100.102 89.0451 99.8984 89.1778 99.6141 89.2691C99.3094 89.3669 98.8564 89.4564 98.255 89.5374C97.6472 89.5982 97.0284 89.7297 96.3987 89.9318C95.4847 90.2253 94.7146 90.6182 94.0885 91.1106C93.4827 91.5964 92.9769 92.1845 92.5712 92.8749C92.1859 93.5588 91.8973 94.3348 91.7055 95.203C91.5138 96.0712 91.3851 97.0312 91.3195 98.0829L97.5221 117.4L90.9715 119.503L80.9926 88.4257L84.8011 87.2028C85.4917 86.9811 86.0114 86.9599 86.3603 87.1391C86.7026 87.2981 87.0256 87.6761 87.3294 88.2731L89.0266 92.1982ZM117.511 102.377C118.804 103.262 120.066 103.775 121.299 103.917C122.546 104.032 123.81 103.884 125.089 103.473C127.669 102.644 129.38 101.064 130.222 98.7327C131.064 96.4009 130.856 93.2749 129.597 89.3547C128.449 85.7798 126.981 83.3719 125.194 82.1311C123.426 80.8836 121.385 80.6317 119.069 81.3752C117.465 81.8905 116.18 82.7061 115.217 83.8221C114.267 84.9113 113.489 86.2925 112.884 87.9658L117.511 102.377ZM111.358 83.2128C112.187 81.4004 113.261 79.8234 114.578 78.4819C115.895 77.1404 117.569 76.1435 119.6 75.4913C121.408 74.9108 123.147 74.7445 124.817 74.9924C126.501 75.2134 128.063 75.821 129.503 76.8151C130.942 77.8093 132.239 79.1628 133.394 80.8757C134.543 82.5683 135.495 84.5927 136.252 86.9489C137.061 89.4676 137.483 91.8639 137.518 94.1379C137.568 96.3851 137.252 98.4359 136.57 100.29C135.882 102.125 134.846 103.712 133.461 105.053C132.07 106.373 130.359 107.36 128.328 108.012C127.333 108.332 126.396 108.52 125.519 108.578C124.647 108.656 123.808 108.623 123 108.479C122.192 108.335 121.412 108.104 120.66 107.786C119.928 107.46 119.194 107.058 118.457 106.577L118.955 109.072C119.004 109.572 118.929 109.966 118.73 110.254C118.531 110.542 118.198 110.761 117.731 110.911L113.465 112.28L98.9862 67.1878L105.537 65.0844L111.358 83.2128ZM160.172 71.4373C158.88 70.5527 157.61 70.0529 156.363 69.9379C155.116 69.8229 153.853 69.9709 152.573 70.3818C150.014 71.2036 148.317 72.7905 147.481 75.1426C146.639 77.4743 146.808 80.4785 147.989 84.1549C148.602 86.0642 149.289 87.6472 150.051 88.9037C150.807 90.1399 151.626 91.0868 152.509 91.7442C153.393 92.4016 154.333 92.7831 155.33 92.8886C156.328 92.994 157.375 92.8707 158.472 92.5185C160.137 91.9837 161.455 91.1684 162.425 90.0727C163.409 88.9501 164.207 87.5624 164.819 85.9095L160.172 71.4373ZM159.767 47.6713L174.246 92.7637L170.285 94.0355C169.412 94.3159 168.719 94.0789 168.208 93.3244L166.543 90.1283C165.733 92.0691 164.644 93.7741 163.279 95.2433C161.934 96.7059 160.164 97.7894 157.97 98.4938C156.224 99.0547 154.528 99.2181 152.885 98.9841C151.235 98.7297 149.687 98.0953 148.241 97.0808C146.794 96.0663 145.471 94.6653 144.269 92.8776C143.082 91.0632 142.077 88.8763 141.255 86.317C140.512 84.0014 140.128 81.7607 140.105 79.5948C140.102 77.4223 140.448 75.4292 141.143 73.6153C141.831 71.7811 142.867 70.1936 144.252 68.8528C145.65 67.4852 147.375 66.472 149.426 65.8133C151.254 65.2263 152.903 65.0219 154.371 65.2C155.834 65.3579 157.239 65.7917 158.587 66.5015L153.216 49.7746L159.767 47.6713ZM180.311 62.8868C180.653 60.6035 181.336 58.6815 182.358 57.1209C183.374 55.5399 184.847 54.4396 186.777 53.82C187.447 53.6048 188.103 53.4838 188.744 53.4572C189.379 53.4102 189.979 53.4641 190.544 53.6188L191.671 58.7013C191.701 59.0727 191.647 59.3588 191.51 59.5597C191.387 59.7338 191.183 59.8664 190.899 59.9578C190.594 60.0556 190.141 60.145 189.54 60.2261C188.932 60.2868 188.313 60.4183 187.683 60.6205C186.769 60.914 185.999 61.3069 185.373 61.7992C184.767 62.285 184.261 62.8731 183.856 63.5636C183.47 64.2475 183.182 65.0235 182.99 65.8917C182.798 66.7599 182.67 67.7199 182.604 68.7716L188.807 88.0882L182.256 90.1916L172.277 59.1144L176.086 57.8915C176.776 57.6697 177.296 57.6485 177.645 57.8278C177.987 57.9867 178.31 58.3647 178.614 58.9618L180.311 62.8868ZM201.596 49.7002L211.575 80.7774L205.024 82.8808L195.045 51.8036L201.596 49.7002ZM199.679 39.9639C199.869 40.553 199.926 41.1507 199.852 41.7571C199.798 42.3569 199.633 42.9252 199.357 43.4619C199.075 43.9782 198.699 44.4463 198.229 44.8662C197.772 45.2592 197.239 45.5535 196.63 45.7492C196.041 45.9383 195.447 46.006 194.847 45.9521C194.261 45.8714 193.713 45.7001 193.203 45.4381C192.686 45.1557 192.222 44.7897 191.808 44.3398C191.415 43.8835 191.124 43.3608 190.935 42.7717C190.739 42.1623 190.669 41.5577 190.722 40.9579C190.797 40.3515 190.965 39.7934 191.227 39.2836C191.482 38.7534 191.828 38.2951 192.264 37.9086C192.714 37.4953 193.233 37.194 193.822 37.0049C194.432 36.8092 195.04 36.7485 195.646 36.8227C196.266 36.87 196.844 37.0316 197.381 37.3074C197.911 37.5628 198.373 37.9188 198.766 38.3751C199.179 38.825 199.484 39.3546 199.679 39.9639ZM211.999 30.8997L226.478 75.9921L219.927 78.0955L205.448 33.003L211.999 30.8997ZM226.756 26.1609L241.236 71.2533L234.685 73.3567L220.206 28.2643L226.756 26.1609ZM259.707 37.2585C259.636 37.5951 259.518 37.8569 259.354 38.044C259.19 38.2311 258.956 38.3735 258.651 38.4714C258.306 38.5822 257.897 38.6013 257.426 38.5287C256.948 38.4357 256.392 38.3452 255.759 38.2572C255.126 38.1693 254.401 38.1444 253.584 38.1826C252.781 38.194 251.882 38.3594 250.887 38.679C250.074 38.9399 249.366 39.2795 248.761 39.6979C248.169 40.0894 247.699 40.543 247.349 41.0586C247.013 41.5474 246.801 42.0746 246.714 42.6404C246.62 43.1858 246.662 43.7328 246.838 44.2812C247.073 45.0124 247.492 45.55 248.095 45.894C248.698 46.238 249.424 46.4754 250.273 46.6062C251.115 46.7167 252.049 46.7642 253.075 46.7485C254.1 46.7329 255.153 46.731 256.232 46.7429C257.311 46.7549 258.387 46.8241 259.458 46.9506C260.529 47.0772 261.532 47.3379 262.465 47.7327C263.392 48.1073 264.222 48.6697 264.956 49.4199C265.684 50.1499 266.249 51.1445 266.654 52.4038C267.123 53.8663 267.293 55.3018 267.163 56.7104C267.033 58.119 266.606 59.4434 265.884 60.6835C265.162 61.9237 264.121 63.0422 262.761 64.0392C261.421 65.0296 259.776 65.8379 257.826 66.464C256.749 66.8097 255.67 67.044 254.59 67.167C253.536 67.3038 252.499 67.3564 251.481 67.3249C250.476 67.2666 249.503 67.131 248.561 66.9182C247.639 66.6989 246.785 66.4128 246 66.0601L246.721 63.0726C246.806 62.7092 246.955 62.4039 247.166 62.1566C247.392 61.8825 247.708 61.6802 248.114 61.5497C248.541 61.4128 249.003 61.4212 249.5 61.5752C250.012 61.7023 250.594 61.8402 251.247 61.9891C251.92 62.1315 252.698 62.2177 253.581 62.2477C254.458 62.2574 255.486 62.0731 256.664 61.6948C257.639 61.3818 258.446 60.9994 259.085 60.5477C259.718 60.0756 260.203 59.5615 260.539 59.0053C260.876 58.449 261.075 57.8811 261.135 57.3016C261.189 56.7017 261.121 56.1073 260.932 55.5182C260.678 54.7261 260.245 54.1478 259.636 53.7835C259.026 53.4192 258.286 53.1749 257.417 53.0506C256.569 52.9198 255.621 52.8655 254.575 52.8877C253.55 52.9033 252.497 52.9052 251.418 52.8932C250.339 52.8813 249.253 52.8153 248.162 52.6953C247.09 52.5688 246.074 52.3012 245.114 51.8925C244.168 51.457 243.321 50.8439 242.574 50.053C241.821 49.2418 241.226 48.1558 240.789 46.7949C240.391 45.5559 240.256 44.2995 240.385 43.0258C240.534 41.7456 240.949 40.5257 241.63 39.3661C242.331 38.1999 243.304 37.1481 244.549 36.2106C245.808 35.2462 247.361 34.4673 249.209 33.8738C251.302 33.202 253.308 32.9273 255.23 33.0498C257.151 33.1722 258.877 33.6264 260.406 34.4124L259.707 37.2585Z" fill="#FF6663"/>
<rect x="24.5531" y="144.606" width="262.278" height="29.6454" transform="rotate(-18.1668 24.5531 144.606)" fill="#FF6663"/>
<path d="M35.4708 163.551L31.6685 151.917L33.1513 151.432C33.4859 151.323 33.7498 151.409 33.9429 151.691L34.4344 152.654C34.5678 152.341 34.7162 152.048 34.8797 151.776C35.0408 151.496 35.2269 151.242 35.4383 151.013C35.6547 150.774 35.8975 150.564 36.1668 150.383C36.4436 150.2 36.7569 150.052 37.1067 149.937C37.4793 149.816 37.8389 149.757 38.1855 149.762C38.532 149.766 38.8555 149.829 39.1558 149.949C39.4638 150.068 39.7512 150.239 40.018 150.463C40.2849 150.687 40.5325 150.956 40.7609 151.268C40.804 150.808 40.9115 150.39 41.0832 150.014C41.2549 149.638 41.4744 149.305 41.7418 149.016C42.0091 148.727 42.3116 148.48 42.6493 148.278C42.9921 148.065 43.3536 147.896 43.7338 147.772C44.3573 147.568 44.9447 147.485 45.496 147.524C46.0549 147.56 46.5638 147.714 47.0226 147.985C47.4866 148.245 47.8955 148.621 48.2493 149.111C48.6031 149.602 48.8944 150.197 49.123 150.896L51.5423 158.299L49.0899 159.1L46.6706 151.698C46.4022 150.876 46.0222 150.319 45.5306 150.025C45.0442 149.721 44.4549 149.682 43.763 149.908C43.4512 150.01 43.1758 150.159 42.9369 150.355C42.6979 150.551 42.5093 150.785 42.3711 151.058C42.2329 151.33 42.1539 151.642 42.1341 151.993C42.1194 152.335 42.1792 152.711 42.3134 153.122L44.7327 160.524L42.2803 161.326L39.8611 153.923C39.5827 153.071 39.2078 152.504 38.7364 152.22C38.2625 151.929 37.6948 151.891 37.0332 152.108C36.577 152.257 36.1935 152.513 35.8827 152.875C35.5694 153.23 35.3152 153.662 35.1199 154.172L37.9231 162.75L35.4708 163.551ZM58.9609 150.244C58.0964 150.56 57.3824 150.873 56.8189 151.184C56.253 151.486 55.8123 151.786 55.4968 152.083C55.1789 152.372 54.9748 152.662 54.8846 152.952C54.8019 153.24 54.8066 153.525 54.8985 153.806C54.988 154.08 55.1068 154.302 55.2551 154.472C55.4085 154.632 55.5823 154.752 55.7767 154.832C55.9761 154.901 56.1884 154.933 56.4136 154.927C56.6439 154.91 56.8846 154.861 57.1355 154.779C57.7743 154.57 58.2832 154.274 58.6625 153.889C59.0468 153.494 59.3811 152.997 59.6655 152.4L58.9609 150.244ZM50.849 147.441C51.7644 145.787 53.1308 144.663 54.9482 144.069C55.6174 143.85 56.2465 143.767 56.8357 143.818C57.43 143.859 57.9666 144.021 58.4456 144.302C58.9323 144.58 59.3563 144.964 59.7177 145.452C60.0843 145.929 60.3756 146.499 60.5919 147.161L63.0074 154.552L61.9124 154.91C61.6767 154.987 61.4868 155.011 61.3427 154.982C61.1962 154.946 61.0451 154.831 60.8894 154.638L60.3405 153.77C60.1309 154.133 59.9164 154.468 59.697 154.775C59.4752 155.075 59.232 155.348 58.9674 155.594C58.7104 155.838 58.4145 156.053 58.0794 156.238C57.7545 156.429 57.3791 156.593 56.9533 156.732C56.4818 156.887 56.0196 156.966 55.5668 156.971C55.1215 156.973 54.7083 156.894 54.3273 156.732C53.9437 156.563 53.6011 156.313 53.2995 155.982C53.0054 155.649 52.7727 155.22 52.6012 154.696C52.4546 154.247 52.4296 153.771 52.5261 153.268C52.6303 152.763 52.9015 152.254 53.3396 151.74C53.7829 151.216 54.4171 150.698 55.2424 150.184C56.0752 149.668 57.1482 149.178 58.4614 148.715L58.2079 147.94C57.9346 147.103 57.5521 146.538 57.0605 146.244C56.5689 145.95 55.9771 145.917 55.2851 146.143C54.8137 146.297 54.4381 146.487 54.1585 146.713C53.8764 146.931 53.6399 147.148 53.4489 147.361C53.2579 147.575 53.091 147.773 52.9483 147.954C52.803 148.128 52.6278 148.248 52.4224 148.315C52.2552 148.37 52.097 148.376 51.948 148.332C51.8041 148.278 51.673 148.199 51.5547 148.094L50.849 147.441ZM69.714 141.819C69.688 141.945 69.6444 142.043 69.5833 142.114C69.5221 142.184 69.4345 142.238 69.3205 142.275C69.1912 142.318 69.0381 142.326 68.8612 142.299C68.6817 142.265 68.4732 142.233 68.2356 142.201C67.998 142.169 67.7261 142.161 67.4198 142.177C67.1188 142.183 66.7819 142.247 66.4093 142.368C66.1051 142.468 65.84 142.597 65.6139 142.755C65.393 142.903 65.2174 143.074 65.0872 143.268C64.9622 143.451 64.8839 143.65 64.8522 143.862C64.8182 144.067 64.8347 144.272 64.9018 144.477C64.9912 144.751 65.1494 144.952 65.3764 145.079C65.6033 145.207 65.876 145.295 66.1945 145.342C66.5105 145.382 66.8608 145.398 67.2454 145.39C67.6299 145.382 68.0246 145.38 68.4294 145.382C68.8342 145.384 69.2375 145.408 69.6395 145.454C70.0415 145.499 70.4179 145.595 70.7687 145.741C71.117 145.88 71.4294 146.089 71.7061 146.369C71.9802 146.641 72.1944 147.013 72.3484 147.485C72.5274 148.032 72.5938 148.57 72.5476 149.099C72.5015 149.627 72.3443 150.124 72.0759 150.591C71.8075 151.057 71.4192 151.479 70.9111 151.855C70.4105 152.229 69.7952 152.536 69.0652 152.774C68.6621 152.906 68.2581 152.996 67.853 153.044C67.4581 153.097 67.0696 153.119 66.6877 153.109C66.3108 153.089 65.9455 153.04 65.5918 152.962C65.2457 152.882 64.925 152.776 64.6298 152.646L64.8945 151.524C64.9256 151.387 64.9807 151.273 65.0597 151.18C65.1437 151.076 65.2618 151 65.4139 150.95C65.5736 150.898 65.7469 150.9 65.9338 150.957C66.1258 151.004 66.3443 151.054 66.5894 151.109C66.8421 151.161 67.1341 151.192 67.4654 151.201C67.7943 151.203 68.1793 151.132 68.6203 150.988C68.9853 150.869 69.2872 150.724 69.526 150.553C69.7623 150.375 69.9431 150.181 70.0683 149.972C70.1935 149.763 70.2669 149.549 70.2884 149.332C70.3074 149.107 70.2809 148.884 70.2088 148.664C70.1119 148.367 69.9487 148.151 69.7193 148.016C69.4899 147.88 69.2121 147.79 68.886 147.745C68.5676 147.698 68.2122 147.679 67.82 147.689C67.4354 147.697 67.0408 147.7 66.636 147.698C66.2312 147.695 65.8241 147.673 65.4145 147.63C65.0125 147.584 64.6311 147.486 64.2702 147.335C63.9144 147.173 63.5957 146.945 63.3141 146.65C63.03 146.347 62.8047 145.941 62.6382 145.431C62.4866 144.968 62.4338 144.497 62.4796 144.019C62.533 143.538 62.6862 143.08 62.9392 142.644C63.1999 142.205 63.5627 141.809 64.0278 141.455C64.4979 141.091 65.079 140.796 65.771 140.57C66.5542 140.314 67.3062 140.207 68.027 140.249C68.7477 140.291 69.3957 140.458 69.9708 140.75L69.714 141.819ZM79.628 149.322C78.6622 149.638 77.8288 149.611 77.1277 149.243C76.4316 148.864 75.9221 148.181 75.599 147.192L73.3848 140.417L72.1073 140.834C71.9704 140.879 71.8389 140.876 71.7127 140.825C71.584 140.766 71.4911 140.649 71.4339 140.474L71.1096 139.481L72.9022 138.593L72.3386 135.053C72.3344 134.911 72.3655 134.787 72.4319 134.681C72.4958 134.568 72.6038 134.486 72.7559 134.436L74.0106 134.026L75.2593 137.848L78.4873 136.793L79.0651 138.561L75.8371 139.616L77.9955 146.22C78.1322 146.638 78.3392 146.924 78.6166 147.077C78.894 147.231 79.2037 147.251 79.5459 147.14C79.736 147.078 79.8921 147.001 80.014 146.911C80.1335 146.813 80.234 146.721 80.3154 146.636C80.3944 146.543 80.4607 146.462 80.5142 146.394C80.5728 146.316 80.6364 146.266 80.7048 146.243C80.8417 146.199 80.9768 146.239 81.1102 146.363L82.2316 147.322C81.9607 147.781 81.5966 148.186 81.1391 148.538C80.6792 148.882 80.1755 149.143 79.628 149.322ZM89.3823 138.042C89.2481 137.631 89.063 137.271 88.8271 136.961C88.5962 136.641 88.3244 136.389 88.0118 136.205C87.6967 136.013 87.3445 135.901 86.9551 135.868C86.5708 135.826 86.1581 135.876 85.7171 136.021C84.8274 136.311 84.211 136.795 83.868 137.471C83.5251 138.147 83.4355 138.967 83.5993 139.932L89.3823 138.042ZM84.0229 141.46C84.2696 142.112 84.5598 142.652 84.8938 143.082C85.2252 143.504 85.5876 143.827 85.981 144.052C86.3819 144.274 86.81 144.4 87.2652 144.428C87.7255 144.445 88.2066 144.372 88.7085 144.208C89.1876 144.052 89.5846 143.863 89.8996 143.642C90.2121 143.414 90.4765 143.193 90.6928 142.979C90.9067 142.758 91.0874 142.564 91.2351 142.398C91.3803 142.224 91.529 142.112 91.6811 142.063C91.8788 141.998 92.0557 142.025 92.2119 142.142L93.2022 142.816C93.025 143.252 92.7925 143.648 92.5045 144.003C92.2166 144.358 91.8921 144.679 91.5312 144.965C91.1678 145.244 90.7793 145.484 90.3657 145.687C89.9547 145.897 89.5438 146.069 89.1332 146.203C88.3271 146.467 87.5346 146.578 86.7557 146.538C85.9818 146.488 85.2544 146.284 84.5735 145.926C83.9001 145.565 83.2922 145.044 82.7498 144.363C82.2149 143.679 81.7823 142.832 81.4517 141.82C81.1883 141.014 81.0678 140.221 81.0901 139.439C81.12 138.655 81.2862 137.927 81.5886 137.256C81.8987 136.582 82.3437 135.987 82.9235 135.469C83.5085 134.941 84.2306 134.537 85.0899 134.256C85.8047 134.022 86.5048 133.924 87.1902 133.961C87.8731 133.99 88.5083 134.157 89.096 134.462C89.6837 134.766 90.206 135.206 90.6631 135.78C91.1253 136.345 91.4918 137.041 91.7627 137.87C91.8869 138.25 91.9284 138.519 91.887 138.675C91.8456 138.832 91.7146 138.946 91.4941 139.018L84.0229 141.46ZM95.4183 133.469C95.5422 132.612 95.7944 131.89 96.1748 131.303C96.5527 130.708 97.1029 130.292 97.8253 130.056C98.0762 129.974 98.3219 129.928 98.5623 129.916C98.8002 129.897 99.0253 129.916 99.2374 129.973L99.6702 131.877C99.6821 132.016 99.6625 132.124 99.6114 132.199C99.5655 132.265 99.4893 132.315 99.3828 132.35C99.2688 132.387 99.0991 132.421 98.8737 132.453C98.6459 132.477 98.4141 132.527 98.1784 132.605C97.8362 132.716 97.5482 132.865 97.3144 133.051C97.0881 133.234 96.8996 133.456 96.7488 133.716C96.6056 133.973 96.4989 134.264 96.4287 134.59C96.3585 134.916 96.3121 135.276 96.2895 135.671L98.6529 142.903L96.2005 143.704L92.3983 132.07L93.8241 131.604C94.0826 131.519 94.2775 131.51 94.4086 131.577C94.5373 131.636 94.6592 131.777 94.7742 132L95.4183 133.469ZM115.696 124.456L114.822 137.618L112.609 138.342L104.13 128.236L106.149 127.576C106.339 127.514 106.511 127.512 106.665 127.571C106.824 127.62 106.944 127.703 107.024 127.82L111.816 133.753C112.027 134.037 112.225 134.322 112.411 134.606C112.596 134.891 112.772 135.183 112.937 135.482C112.893 135.143 112.864 134.808 112.848 134.476C112.837 134.135 112.832 133.783 112.831 133.421L113.241 125.788C113.241 125.637 113.288 125.495 113.38 125.364C113.472 125.233 113.605 125.139 113.78 125.082L115.696 124.456ZM126.141 126.029C126.007 125.618 125.822 125.258 125.586 124.948C125.355 124.628 125.083 124.376 124.77 124.192C124.455 124 124.103 123.888 123.714 123.855C123.329 123.813 122.917 123.863 122.476 124.007C121.586 124.298 120.97 124.782 120.627 125.458C120.284 126.134 120.194 126.954 120.358 127.919L126.141 126.029ZM120.782 129.447C121.028 130.098 121.319 130.639 121.652 131.069C121.984 131.49 122.346 131.814 122.74 132.039C123.141 132.261 123.569 132.386 124.024 132.414C124.484 132.432 124.965 132.359 125.467 132.195C125.946 132.039 126.343 131.85 126.658 131.629C126.971 131.401 127.235 131.18 127.452 130.966C127.665 130.745 127.846 130.551 127.994 130.385C128.139 130.211 128.288 130.099 128.44 130.05C128.637 129.985 128.814 130.011 128.971 130.129L129.961 130.802C129.784 131.239 129.551 131.635 129.263 131.99C128.975 132.345 128.651 132.666 128.29 132.952C127.926 133.231 127.538 133.471 127.124 133.674C126.713 133.884 126.302 134.056 125.892 134.19C125.086 134.453 124.293 134.565 123.514 134.525C122.74 134.475 122.013 134.271 121.332 133.913C120.659 133.552 120.051 133.031 119.508 132.35C118.974 131.666 118.541 130.819 118.21 129.807C117.947 129.001 117.826 128.208 117.849 127.426C117.879 126.642 118.045 125.914 118.347 125.243C118.657 124.569 119.102 123.974 119.682 123.456C120.267 122.928 120.989 122.524 121.849 122.243C122.563 122.009 123.263 121.911 123.949 121.948C124.632 121.977 125.267 122.144 125.855 122.449C126.442 122.753 126.965 123.193 127.422 123.767C127.884 124.331 128.25 125.028 128.521 125.857C128.646 126.237 128.687 126.506 128.646 126.662C128.604 126.819 128.473 126.933 128.253 127.005L120.782 129.447ZM132.177 121.456C132.301 120.599 132.553 119.877 132.933 119.289C133.311 118.695 133.862 118.279 134.584 118.043C134.835 117.961 135.081 117.914 135.321 117.903C135.559 117.884 135.784 117.903 135.996 117.96L136.429 119.864C136.441 120.003 136.421 120.111 136.37 120.186C136.324 120.252 136.248 120.302 136.142 120.337C136.027 120.374 135.858 120.408 135.632 120.44C135.405 120.464 135.173 120.514 134.937 120.591C134.595 120.703 134.307 120.852 134.073 121.038C133.847 121.221 133.658 121.443 133.507 121.702C133.364 121.96 133.258 122.251 133.187 122.577C133.117 122.903 133.071 123.263 133.048 123.658L135.412 130.89L132.959 131.691L129.157 120.057L130.583 119.591C130.841 119.506 131.036 119.497 131.167 119.564C131.296 119.623 131.418 119.764 131.533 119.987L132.177 121.456ZM142.878 125.217C143.365 125.547 143.839 125.737 144.302 125.787C144.77 125.828 145.243 125.77 145.722 125.614C146.688 125.298 147.326 124.702 147.638 123.826C147.949 122.95 147.865 121.778 147.385 120.311C146.948 118.972 146.393 118.072 145.72 117.61C145.055 117.146 144.289 117.056 143.422 117.339C142.821 117.535 142.341 117.843 141.982 118.264C141.628 118.674 141.339 119.194 141.115 119.822L142.878 125.217ZM140.534 118.043C140.841 117.362 141.241 116.768 141.732 116.263C142.223 115.757 142.849 115.38 143.609 115.131C144.286 114.91 144.938 114.844 145.565 114.934C146.197 115.014 146.784 115.239 147.325 115.609C147.867 115.979 148.356 116.484 148.793 117.124C149.227 117.756 149.588 118.514 149.876 119.396C150.184 120.339 150.347 121.236 150.365 122.089C150.388 122.932 150.273 123.701 150.021 124.398C149.767 125.087 149.381 125.684 148.865 126.19C148.346 126.688 147.706 127.061 146.945 127.31C146.573 127.431 146.222 127.504 145.893 127.527C145.566 127.558 145.252 127.547 144.948 127.495C144.645 127.443 144.352 127.357 144.069 127.239C143.794 127.119 143.518 126.969 143.241 126.791L143.433 127.725C143.452 127.913 143.425 128.06 143.351 128.169C143.276 128.277 143.152 128.36 142.977 128.417L141.38 128.939L135.863 112.058L138.316 111.256L140.534 118.043ZM165.105 110.833C165.061 110.957 165.014 111.057 164.963 111.132C164.912 111.208 164.822 111.267 164.692 111.309C164.563 111.351 164.411 111.35 164.237 111.306C164.07 111.26 163.871 111.216 163.638 111.174C163.411 111.122 163.145 111.095 162.842 111.093C162.538 111.091 162.181 111.158 161.771 111.292C161.238 111.466 160.802 111.714 160.461 112.035C160.127 112.355 159.882 112.738 159.725 113.185C159.574 113.621 159.512 114.117 159.542 114.671C159.577 115.215 159.697 115.803 159.904 116.434C160.117 117.088 160.38 117.646 160.691 118.108C161.002 118.571 161.347 118.933 161.728 119.196C162.116 119.456 162.53 119.616 162.97 119.674C163.417 119.73 163.88 119.679 164.36 119.523C164.831 119.369 165.196 119.186 165.456 118.975C165.715 118.764 165.921 118.558 166.074 118.356C166.227 118.155 166.353 117.975 166.453 117.816C166.56 117.655 166.694 117.548 166.853 117.496C167.051 117.431 167.228 117.458 167.384 117.575L168.374 118.249C168.205 118.683 167.987 119.074 167.722 119.421C167.457 119.769 167.159 120.081 166.829 120.357C166.496 120.626 166.134 120.858 165.743 121.053C165.355 121.255 164.952 121.425 164.533 121.562C163.811 121.798 163.091 121.886 162.373 121.826C161.66 121.756 160.984 121.543 160.346 121.188C159.713 120.822 159.14 120.315 158.625 119.667C158.115 119.009 157.705 118.205 157.394 117.254C157.113 116.395 156.975 115.561 156.98 114.751C156.982 113.934 157.128 113.183 157.418 112.499C157.716 111.813 158.162 111.209 158.757 110.686C159.35 110.156 160.099 109.743 161.003 109.447C161.848 109.171 162.634 109.066 163.362 109.131C164.098 109.193 164.799 109.393 165.464 109.731L165.105 110.833ZM171.866 105.897C172.726 105.616 173.547 105.503 174.331 105.558C175.123 105.611 175.846 105.816 176.502 106.174C177.165 106.53 177.75 107.033 178.258 107.684C178.765 108.334 179.169 109.12 179.47 110.04C179.77 110.96 179.908 111.832 179.883 112.657C179.858 113.481 179.684 114.237 179.361 114.923C179.043 115.599 178.581 116.192 177.973 116.702C177.373 117.21 176.643 117.604 175.784 117.885C174.917 118.168 174.088 118.283 173.297 118.231C172.513 118.175 171.789 117.97 171.126 117.614C170.46 117.251 169.874 116.744 169.366 116.094C168.859 115.443 168.455 114.658 168.154 113.738C167.854 112.818 167.716 111.945 167.741 111.121C167.766 110.296 167.941 109.544 168.267 108.866C168.592 108.187 169.055 107.594 169.655 107.087C170.262 106.577 171 106.18 171.866 105.897ZM175.158 115.968C176.207 115.626 176.872 115.021 177.153 114.155C177.439 113.279 177.369 112.187 176.941 110.879C176.514 109.571 175.926 108.648 175.178 108.11C174.435 107.561 173.538 107.459 172.489 107.802C171.424 108.149 170.75 108.765 170.467 109.649C170.181 110.525 170.252 111.617 170.679 112.925C171.106 114.233 171.694 115.156 172.442 115.694C173.188 116.225 174.093 116.316 175.158 115.968ZM182.724 104.254C182.891 103.914 183.074 103.598 183.273 103.305C183.477 103.003 183.706 102.726 183.961 102.474C184.215 102.223 184.5 101.999 184.815 101.804C185.129 101.608 185.488 101.445 185.891 101.313C186.53 101.104 187.124 101.028 187.672 101.085C188.229 101.138 188.734 101.306 189.187 101.587C189.649 101.865 190.053 102.251 190.399 102.744C190.742 103.229 191.021 103.799 191.235 104.453L193.654 111.855L191.213 112.653L188.794 105.25C188.538 104.467 188.157 103.918 187.65 103.604C187.151 103.288 186.533 103.25 185.795 103.491C185.248 103.67 184.779 103.962 184.39 104.367C184.008 104.769 183.682 105.254 183.413 105.822L186.183 114.297L183.731 115.098L179.928 103.464L181.411 102.979C181.746 102.87 182.01 102.956 182.203 103.238L182.724 104.254ZM195.271 98.4498L199.271 110.689C199.43 111.175 199.514 111.653 199.524 112.121C199.537 112.597 199.454 113.04 199.277 113.451C199.1 113.863 198.817 114.233 198.428 114.562C198.047 114.889 197.541 115.155 196.91 115.361C196.643 115.448 196.398 115.508 196.172 115.539C195.947 115.571 195.713 115.588 195.47 115.592L195.125 114.228C195.098 114.068 195.134 113.96 195.233 113.902C195.325 113.847 195.515 113.772 195.804 113.678C196.382 113.489 196.742 113.228 196.886 112.895C197.04 112.567 197.017 112.099 196.818 111.49L192.819 99.2512L195.271 98.4498ZM194.522 94.8062C194.594 95.0267 194.617 95.2507 194.59 95.4783C194.571 95.7033 194.511 95.9167 194.408 96.1185C194.303 96.3127 194.167 96.4877 193.999 96.6436C193.829 96.7918 193.629 96.9032 193.401 96.9778C193.181 97.0499 192.958 97.0764 192.733 97.0573C192.513 97.0282 192.303 96.9663 192.104 96.8715C191.91 96.7666 191.739 96.629 191.59 96.4586C191.442 96.2883 191.332 96.0928 191.26 95.8723C191.185 95.6442 191.158 95.4176 191.177 95.1925C191.196 94.9675 191.254 94.7591 191.351 94.5674C191.453 94.3656 191.586 94.1919 191.749 94.0461C191.917 93.8902 192.111 93.7762 192.331 93.7042C192.56 93.6296 192.787 93.6057 193.015 93.6323C193.24 93.6513 193.453 93.712 193.655 93.8144C193.854 93.9092 194.028 94.0418 194.176 94.2122C194.332 94.38 194.448 94.578 194.522 94.8062ZM208.162 94.237L211.964 105.871L210.481 106.356C210.154 106.463 209.894 106.375 209.701 106.093L209.164 105.069C209.006 105.407 208.824 105.728 208.62 106.03C208.423 106.33 208.198 106.606 207.943 106.857C207.689 107.109 207.4 107.333 207.078 107.531C206.763 107.727 206.408 107.889 206.013 108.018C205.374 108.227 204.776 108.305 204.22 108.251C203.664 108.197 203.155 108.031 202.694 107.752C202.24 107.471 201.841 107.088 201.497 106.603C201.151 106.11 200.871 105.537 200.658 104.883L198.238 97.4801L200.691 96.6786L203.11 104.081C203.366 104.865 203.743 105.414 204.242 105.731C204.749 106.045 205.371 106.082 206.109 105.841C206.649 105.664 207.111 105.379 207.495 104.984C207.885 104.579 208.214 104.092 208.483 103.525L205.709 95.0384L208.162 94.237ZM217.159 97.6214C217.92 97.3729 218.427 96.9926 218.68 96.4805C218.934 95.9684 218.959 95.4006 218.755 94.7771C218.546 94.1383 218.191 93.6948 217.689 93.4464C217.187 93.1981 216.555 93.1981 215.795 93.4467C215.042 93.6927 214.533 94.0654 214.267 94.5647C214.008 95.0616 213.983 95.6294 214.192 96.2682C214.292 96.5723 214.433 96.8375 214.616 97.0638C214.8 97.29 215.017 97.4671 215.27 97.5951C215.519 97.7155 215.802 97.7829 216.119 97.7974C216.44 97.8018 216.787 97.7431 217.159 97.6214ZM222.691 102.997C222.606 102.738 222.463 102.558 222.262 102.456C222.065 102.343 221.827 102.286 221.549 102.284C221.268 102.275 220.954 102.306 220.607 102.378C220.258 102.441 219.891 102.528 219.505 102.637C219.125 102.736 218.735 102.842 218.335 102.956C217.939 103.06 217.551 103.145 217.168 103.211C216.865 103.521 216.64 103.847 216.491 104.19C216.35 104.531 216.336 104.876 216.451 105.226C216.525 105.454 216.652 105.648 216.83 105.809C217.017 105.967 217.255 106.078 217.546 106.143C217.844 106.205 218.197 106.216 218.604 106.176C219.019 106.133 219.497 106.023 220.037 105.846C221.117 105.494 221.872 105.062 222.302 104.551C222.733 104.04 222.862 103.522 222.691 102.997ZM221.304 90.4091L221.602 91.3216C221.702 91.6258 221.58 91.8717 221.237 92.0594L220.137 92.6336C220.479 93.01 220.738 93.4682 220.915 94.0081C221.101 94.5784 221.156 95.1327 221.079 95.6711C221.011 96.2071 220.832 96.7031 220.543 97.1593C220.255 97.6156 219.865 98.0206 219.375 98.3744C218.885 98.7282 218.32 99.0095 217.681 99.2183C217.438 99.2978 217.195 99.3647 216.951 99.4189C216.713 99.463 216.477 99.4983 216.241 99.5248C216.063 99.7261 215.944 99.9164 215.885 100.096C215.826 100.275 215.821 100.441 215.871 100.593C215.953 100.844 216.124 100.994 216.384 101.044C216.644 101.093 216.962 101.086 217.337 101.023C217.719 100.957 218.145 100.855 218.614 100.719C219.082 100.583 219.563 100.455 220.054 100.337C220.546 100.218 221.038 100.129 221.532 100.068C222.023 100 222.481 100.011 222.905 100.099C223.335 100.177 223.716 100.352 224.048 100.622C224.381 100.892 224.636 101.301 224.815 101.848C224.979 102.35 225.014 102.882 224.92 103.443C224.825 104.004 224.599 104.549 224.242 105.078C223.892 105.605 223.411 106.09 222.799 106.534C222.189 106.986 221.447 107.355 220.573 107.641C219.706 107.924 218.922 108.088 218.221 108.132C217.527 108.173 216.917 108.12 216.389 107.973C215.871 107.831 215.445 107.608 215.11 107.305C214.783 107 214.554 106.645 214.422 106.242C214.243 105.695 214.261 105.171 214.477 104.672C214.7 104.169 215.072 103.711 215.593 103.297C215.224 103.249 214.897 103.124 214.612 102.923C214.335 102.719 214.126 102.4 213.984 101.967C213.872 101.625 213.881 101.226 214.01 100.772C214.139 100.317 214.413 99.8783 214.83 99.4557C214.148 99.3252 213.553 99.0523 213.047 98.637C212.539 98.214 212.169 97.6489 211.938 96.9417C211.749 96.3638 211.689 95.8069 211.758 95.271C211.835 94.7326 212.021 94.234 212.317 93.7753C212.613 93.3166 213.006 92.9104 213.497 92.5565C213.995 92.2002 214.571 91.9152 215.225 91.7015C216.228 91.3735 217.171 91.2968 218.053 91.4715L221.304 90.4091ZM231.459 93.8696C230.595 94.1858 229.881 94.4991 229.317 94.8095C228.751 95.1123 228.311 95.412 227.995 95.7087C227.677 95.9977 227.473 96.2875 227.383 96.5779C227.3 96.8658 227.305 97.1504 227.397 97.4318C227.486 97.7055 227.605 97.9276 227.753 98.098C227.907 98.2583 228.081 98.3782 228.275 98.4578C228.475 98.5272 228.687 98.5589 228.912 98.5526C229.142 98.5362 229.383 98.4871 229.634 98.405C230.273 98.1963 230.782 97.8995 231.161 97.5147C231.545 97.1197 231.88 96.6233 232.164 96.0254L231.459 93.8696ZM223.347 91.0669C224.263 89.4127 225.629 88.2886 227.447 87.6946C228.116 87.4759 228.745 87.3924 229.334 87.4439C229.928 87.4853 230.465 87.6466 230.944 87.9277C231.431 88.2063 231.855 88.5896 232.216 89.0774C232.583 89.5552 232.874 90.1249 233.09 90.7864L235.506 98.1777L234.411 98.5356C234.175 98.6126 233.985 98.6368 233.841 98.6081C233.695 98.5719 233.544 98.4571 233.388 98.2639L232.839 97.3955C232.629 97.7586 232.415 98.0938 232.195 98.4011C231.974 98.7009 231.73 98.9739 231.466 99.2203C231.209 99.4642 230.913 99.6788 230.578 99.864C230.253 100.054 229.877 100.219 229.452 100.358C228.98 100.512 228.518 100.592 228.065 100.597C227.62 100.599 227.207 100.52 226.826 100.358C226.442 100.189 226.1 99.9389 225.798 99.6082C225.504 99.2751 225.271 98.8461 225.1 98.3214C224.953 97.8728 224.928 97.397 225.025 96.8942C225.129 96.3888 225.4 95.8794 225.838 95.3658C226.281 94.8422 226.916 94.3236 227.741 93.8098C228.574 93.2935 229.647 92.804 230.96 92.3412L230.706 91.5655C230.433 90.7291 230.05 90.1639 229.559 89.8701C229.067 89.5763 228.476 89.5424 227.784 89.7686C227.312 89.9227 226.937 90.1127 226.657 90.3388C226.375 90.5572 226.138 90.7734 225.947 90.9873C225.756 91.2012 225.589 91.3988 225.447 91.5801C225.301 91.7538 225.126 91.8742 224.921 91.9413C224.754 91.996 224.595 92.0014 224.446 91.9575C224.303 91.9035 224.171 91.8243 224.053 91.7199L223.347 91.0669ZM249.515 93.5994L247.063 94.4009L243.89 84.6941L238.221 86.5468L240.38 93.151C240.516 93.5693 240.723 93.8551 241.001 94.0085C241.278 94.1619 241.588 94.1827 241.93 94.0709C242.12 94.0088 242.276 93.9325 242.398 93.8422C242.518 93.7442 242.618 93.6525 242.7 93.5669C242.779 93.4738 242.845 93.3932 242.898 93.3252C242.957 93.2471 243.021 93.1969 243.089 93.1746C243.226 93.1298 243.361 93.1698 243.494 93.2946L244.616 94.2537C244.345 94.7125 243.981 95.1177 243.523 95.4692C243.063 95.8131 242.56 96.0745 242.012 96.2534C241.046 96.569 240.213 96.5426 239.512 96.1742C238.816 95.7957 238.306 95.1121 237.983 94.1236L235.769 87.3482L234.491 87.7657C234.355 87.8105 234.223 87.8072 234.097 87.7558C233.968 87.6969 233.875 87.58 233.818 87.4051L233.494 86.4127L235.286 85.5239L234.723 81.9838C234.719 81.8421 234.75 81.7183 234.816 81.6125C234.88 81.499 234.988 81.4174 235.14 81.3677L236.395 80.9577L237.644 84.7788L245.765 82.1247L249.515 93.5994ZM245.048 78.2308C245.12 78.4513 245.143 78.6753 245.116 78.9029C245.094 79.1203 245.032 79.3299 244.93 79.5317C244.825 79.7259 244.685 79.9022 244.51 80.0605C244.339 80.2088 244.144 80.3189 243.923 80.391C243.703 80.4631 243.48 80.4896 243.255 80.4705C243.035 80.4414 242.825 80.3795 242.626 80.2847C242.432 80.1798 242.258 80.0473 242.105 79.887C241.956 79.7166 241.846 79.5212 241.774 79.3006C241.7 79.0725 241.672 78.8459 241.691 78.6209C241.715 78.3857 241.776 78.1723 241.873 77.9806C241.975 77.7788 242.108 77.6051 242.271 77.4593C242.439 77.3034 242.633 77.1894 242.853 77.1174C243.074 77.0453 243.298 77.0226 243.525 77.0492C243.758 77.0658 243.975 77.1252 244.177 77.2276C244.376 77.3224 244.551 77.4588 244.702 77.6368C244.858 77.8046 244.973 78.0027 245.048 78.2308ZM253.783 79.1257C254.642 78.8449 255.463 78.7321 256.247 78.7873C257.039 78.84 257.762 79.0454 258.418 79.4034C259.081 79.759 259.667 80.262 260.174 80.9127C260.681 81.5633 261.085 82.3487 261.386 83.2688C261.686 84.1889 261.824 85.0612 261.799 85.8858C261.774 86.7104 261.6 87.4658 261.277 88.1521C260.96 88.8282 260.497 89.4213 259.889 89.9312C259.289 90.4387 258.56 90.8329 257.7 91.1137C256.833 91.397 256.004 91.5123 255.213 91.4596C254.429 91.4044 253.705 91.199 253.042 90.8435C252.376 90.4803 251.79 89.9734 251.282 89.3228C250.775 88.6721 250.371 87.8868 250.071 86.9667C249.77 86.0466 249.632 85.1742 249.657 84.3496C249.682 83.525 249.857 82.7734 250.183 82.0948C250.508 81.4162 250.971 80.8231 251.571 80.3156C252.178 79.8056 252.916 79.409 253.783 79.1257ZM257.074 89.1975C258.123 88.8545 258.789 88.25 259.069 87.3839C259.355 86.5077 259.285 85.4157 258.857 84.1077C258.43 82.7998 257.842 81.8768 257.094 81.3385C256.351 80.7903 255.454 80.6876 254.405 81.0305C253.34 81.3785 252.666 81.9943 252.383 82.8781C252.097 83.7543 252.168 84.8463 252.595 86.1542C253.023 87.4622 253.61 88.3852 254.359 88.9234C255.104 89.454 256.009 89.5454 257.074 89.1975ZM264.64 77.4835C264.807 77.1429 264.99 76.8265 265.189 76.5342C265.393 76.2318 265.622 75.9549 265.877 75.7034C266.131 75.4519 266.416 75.2284 266.731 75.033C267.046 74.8375 267.404 74.6739 267.807 74.5422C268.446 74.3334 269.04 74.2572 269.589 74.3136C270.145 74.3675 270.65 74.5349 271.104 74.8158C271.565 75.0943 271.969 75.4799 272.315 75.9728C272.659 76.458 272.937 77.0276 273.151 77.6816L275.57 85.0843L273.129 85.882L270.71 78.4793C270.454 77.696 270.073 77.1474 269.566 76.8332C269.067 76.5166 268.449 76.4788 267.711 76.7198C267.164 76.8988 266.695 77.1907 266.306 77.5957C265.924 77.9983 265.598 78.4834 265.33 79.051L268.099 87.5259L265.647 88.3274L261.845 76.6929L263.327 76.2083C263.662 76.099 263.926 76.1853 264.119 76.4672L264.64 77.4835Z" fill="#0B3954"/>
</svg>
